<svg width="128" height="128" viewBox="0 0 128 128" fill="none" xmlns="http://www.w3.org/2000/svg">
<g clip-path="url(#clip0_1217_378)">
<path d="M41.3847 82.0402V62.8516H22.4975V55.0155H41.3847V35.8269H49.8237V55.0155H68.7108V62.8516H49.8237V82.0402H41.3847ZM84.0896 108.161C97.4513 106.754 101.269 100.425 101.269 95.6028C101.269 95.2009 101.269 94.5981 101.168 94.0958C100.063 94.7991 98.8578 95.1005 97.4513 95.1005C93.6337 95.1005 90.9212 92.5889 90.9212 88.5703C90.9212 83.8485 94.5379 81.136 98.5564 81.136C103.58 81.136 107.196 85.3555 107.196 92.4884C107.196 101.229 101.671 111.074 84.0896 112.581V108.161Z" fill="black"/>
</g>
<defs>
<clipPath id="clip0_1217_378">
<rect width="128" height="128" fill="white"/>
</clipPath>
</defs>
</svg>
